{
  "accessors": [
    {
      "bufferView": 2,
      "componentType": 5126,
      "count": 96,
      "max": [
        16.628400802612305,
        12.331199645996094,
        6.848700046539307
      ],
      "min": [
        -15.51140022277832,
        -0.439300000667572,
        -0.36239999532699585
      ],
      "type": "VEC3"
    },
    {
      "bufferView": 2,
      "byteOffset": 1152,
      "componentType": 5126,
      "count": 96,
      "max": [
        0.9677121043205261,
        0.9999978542327881,
        0.9985332489013672
      ],
      "min": [
        -0.9964556694030762,
        -0.9999969005584717,
        -0.9964860081672668
      ],
      "type": "VEC3"
    },
    {
      "bufferView": 3,
      "componentType": 5126,
      "count": 96,
      "max": [
        0.9965338706970215,
        0.9999805092811584,
        0.7281917333602905,
        1.0
      ],
      "min": [
        -0.6853586435317993,
        -0.9999971389770508,
        -0.9964901208877563,
        1.0
      ],
      "type": "VEC4"
    },
    {
      "bufferView": 1,
      "componentType": 5126,
      "count": 96,
      "max": [
        0.9660000205039978,
        0.9994999766349792
      ],
      "min": [
        0.0005000000237487257,
        0.0005000000237487257
      ],
      "type": "VEC2"
    },
    {
      "bufferView": 0,
      "componentType": 5125,
      "count": 204,
      "type": "SCALAR"
    },
    {
      "bufferView": 2,
      "byteOffset": 2304,
      "componentType": 5126,
      "count": 48,
      "max": [
        9.267416954040527,
        12.087423324584961,
        3.7338991165161133
      ],
      "min": [
        -9.278900146484375,
        -0.015422999858856201,
        1.1781409978866577
      ],
      "type": "VEC3"
    },
    {
      "bufferView": 2,
      "byteOffset": 2880,
      "componentType": 5126,
      "count": 48,
      "max": [
        0.9884172677993774,
        0.9998540282249451,
        0.9988561272621155
      ],
      "min": [
        -0.988415002822876,
        -0.9998536705970764,
        -0.9988561272621155
      ],
      "type": "VEC3"
    },
    {
      "bufferView": 3,
      "byteOffset": 1536,
      "componentType": 5126,
      "count": 48,
      "max": [
        0.9887377023696899,
        0.2015002965927124,
        0.9989680647850037,
        1.0
      ],
      "min": [
        -0.9885514974594116,
        -0.201499804854393,
        -0.9989702701568604,
        1.0
      ],
      "type": "VEC4"
    },
    {
      "bufferView": 1,
      "byteOffset": 768,
      "componentType": 5126,
      "count": 48,
      "max": [
        0.9003000259399414,
        0.9994999766349792
      ],
      "min": [
        0.0005000000237487257,
        0.0005000000237487257
      ],
      "type": "VEC2"
    },
    {
      "bufferView": 0,
      "byteOffset": 816,
      "componentType": 5125,
      "count": 72,
      "type": "SCALAR"
    },
    {
      "bufferView": 2,
      "byteOffset": 3456,
      "componentType": 5126,
      "count": 20,
      "max": [
        -21.248199462890625,
        7.778299808502197,
        19.079599380493164
      ],
      "min": [
        -23.312700271606445,
        4.293700218200684,
        17.095300674438477
      ],
      "type": "VEC3"
    },
    {
      "bufferView": 2,
      "byteOffset": 3696,
      "componentType": 5126,
      "count": 20,
      "max": [
        0.6537310481071472,
        1.0,
        0.7567270994186401
      ],
      "min": [
        -0.6559507846832275,
        -1.0,
        -0.7713741064071655
      ],
      "type": "VEC3"
    },
    {
      "bufferView": 3,
      "byteOffset": 2304,
      "componentType": 5126,
      "count": 20,
      "max": [
        0.7713740468025208,
        0.0,
        0.7567337155342102,
        1.0
      ],
      "min": [
        -0.7567270994186401,
        0.0,
        -0.6559507846832275,
        1.0
      ],
      "type": "VEC4"
    },
    {
      "bufferView": 1,
      "byteOffset": 1152,
      "componentType": 5126,
      "count": 20,
      "max": [
        0.975600004196167,
        0.9994999766349792
      ],
      "min": [
        0.0005000000237487257,
        0.0005000000237487257
      ],
      "type": "VEC2"
    },
    {
      "bufferView": 0,
      "byteOffset": 1104,
      "componentType": 5125,
      "count": 30,
      "type": "SCALAR"
    },
    {
      "bufferView": 2,
      "byteOffset": 3936,
      "componentType": 5126,
      "count": 216,
      "max": [
        23.3705997467041,
        13.631999969482422,
        18.79360008239746
      ],
      "min": [
        -23.312700271606445,
        -1.559999942779541,
        -7.391499996185303
      ],
      "type": "VEC3"
    },
    {
      "bufferView": 2,
      "byteOffset": 6528,
      "componentType": 5126,
      "count": 216,
      "max": [
        0.9740813374519348,
        1.0,
        0.9997127652168274
      ],
      "min": [
        -0.9761821031570435,
        -1.0,
        -0.9945188760757446
      ],
      "type": "VEC3"
    },
    {
      "bufferView": 3,
      "byteOffset": 2624,
      "componentType": 5126,
      "count": 216,
      "max": [
        1.0,
        1.0,
        0.9761658310890198,
        1.0
      ],
      "min": [
        -1.0,
        -0.49820661544799805,
        -0.8556414246559143,
        1.0
      ],
      "type": "VEC4"
    },
    {
      "bufferView": 1,
      "byteOffset": 1312,
      "componentType": 5126,
      "count": 216,
      "max": [
        0.8190000057220459,
        0.9980000257492065
      ],
      "min": [
        0.0020000000949949026,
        0.0020000000949949026
      ],
      "type": "VEC2"
    },
    {
      "bufferView": 0,
      "byteOffset": 1224,
      "componentType": 5125,
      "count": 588,
      "type": "SCALAR"
    },
    {
      "bufferView": 2,
      "byteOffset": 9120,
      "componentType": 5126,
      "count": 310,
      "max": [
        -12.224274635314941,
        6.888800144195557,
        29.829505920410156
      ],
      "min": [
        -24.485673904418945,
        5.298900127410889,
        17.47300910949707
      ],
      "type": "VEC3"
    },
    {
      "bufferView": 2,
      "byteOffset": 12840,
      "componentType": 5126,
      "count": 310,
      "max": [
        0.9998292326927185,
        0.9992972612380981,
        0.9989457726478577
      ],
      "min": [
        -1.0,
        -0.999527633190155,
        -0.999999463558197
      ],
      "type": "VEC3"
    },
    {
      "bufferView": 3,
      "byteOffset": 6080,
      "componentType": 5126,
      "count": 310,
      "max": [
        0.9989007711410522,
        0.027478208765387535,
        0.9999999403953552,
        1.0
      ],
      "min": [
        -0.9999949932098389,
        -0.023451469838619232,
        -0.9997726678848267,
        1.0
      ],
      "type": "VEC4"
    },
    {
      "bufferView": 1,
      "byteOffset": 3040,
      "componentType": 5126,
      "count": 310,
      "max": [
        0.989300012588501,
        0.9994999766349792
      ],
      "min": [
        0.0005000000237487257,
        0.0005000000237487257
      ],
      "type": "VEC2"
    },
    {
      "bufferView": 0,
      "byteOffset": 3576,
      "componentType": 5125,
      "count": 834,
      "type": "SCALAR"
    },
    {
      "bufferView": 2,
      "byteOffset": 16560,
      "componentType": 5126,
      "count": 748,
      "max": [
        -13.143960952758789,
        7.69920015335083,
        24.086380004882813
      ],
      "min": [
        -16.671960830688477,
        4.171199798583984,
        14.21488094329834
      ],
      "type": "VEC3"
    },
    {
      "bufferView": 2,
      "byteOffset": 25536,
      "componentType": 5126,
      "count": 748,
      "max": [
        0.9999185800552368,
        0.9999173283576965,
        1.0
      ],
      "min": [
        -0.9999163746833801,
        -0.9999162554740906,
        -1.0
      ],
      "type": "VEC3"
    },
    {
      "bufferView": 3,
      "byteOffset": 11040,
      "componentType": 5126,
      "count": 748,
      "max": [
        0.9999178647994995,
        0.9999532103538513,
        0.9997020959854126,
        1.0
      ],
      "min": [
        -0.9999187588691711,
        -0.9999834895133972,
        -0.9898203015327454,
        1.0
      ],
      "type": "VEC4"
    },
    {
      "bufferView": 1,
      "byteOffset": 5520,
      "componentType": 5126,
      "count": 748,
      "max": [
        0.9541000127792358,
        0.9990000128746033
      ],
      "min": [
        0.0010000000474974513,
        0.0010000000474974513
      ],
      "type": "VEC2"
    },
    {
      "bufferView": 0,
      "byteOffset": 6912,
      "componentType": 5125,
      "count": 2982,
      "type": "SCALAR"
    },
    {
      "bufferView": 2,
      "byteOffset": 34512,
      "componentType": 5126,
      "count": 395,
      "max": [
        -14.366048812866211,
        6.546043872833252,
        18.158363342285156
      ],
      "min": [
        -15.418164253234863,
        5.548227787017822,
        14.365863800048828
      ],
      "type": "VEC3"
    },
    {
      "bufferView": 2,
      "byteOffset": 39252,
      "componentType": 5126,
      "count": 395,
      "max": [
        0.9999997615814209,
        0.9982836246490479,
        1.0
      ],
      "min": [
        -0.9995841383934021,
        -0.9999788999557495,
        -0.9999117851257324
      ],
      "type": "VEC3"
    },
    {
      "bufferView": 3,
      "byteOffset": 23008,
      "componentType": 5126,
      "count": 395,
      "max": [
        0.9990683794021606,
        0.9998775720596313,
        0.45967233180999756,
        1.0
      ],
      "min": [
        -1.0,
        -0.9999748468399048,
        -0.538138210773468,
        1.0
      ],
      "type": "VEC4"
    },
    {
      "bufferView": 1,
      "byteOffset": 11504,
      "componentType": 5126,
      "count": 395,
      "max": [
        0.9961000084877014,
        0.9994999766349792
      ],
      "min": [
        0.0005000000237487257,
        0.0005000000237487257
      ],
      "type": "VEC2"
    },
    {
      "bufferView": 0,
      "byteOffset": 18840,
      "componentType": 5125,
      "count": 1806,
      "type": "SCALAR"
    },
    {
      "bufferView": 2,
      "byteOffset": 43992,
      "componentType": 5126,
      "count": 16,
      "max": [
        -13.371910095214844,
        7.485506057739258,
        20.133346557617188
      ],
      "min": [
        -16.46601104736328,
        4.391406059265137,
        15.516646385192871
      ],
      "type": "VEC3"
    },
    {
      "bufferView": 2,
      "byteOffset": 44184,
      "componentType": 5126,
      "count": 16,
      "max": [
        0.9959049820899963,
        0.9959514737129211,
        -0.0889730453491211
      ],
      "min": [
        -0.9959213733673096,
        -0.995876669883728,
        -0.089805968105793
      ],
      "type": "VEC3"
    },
    {
      "bufferView": 3,
      "byteOffset": 29328,
      "componentType": 5126,
      "count": 16,
      "max": [
        0.9999176859855652,
        0.9999138712882996,
        0.0018224908271804452,
        1.0
      ],
      "min": [
        -0.9999138712882996,
        -0.9999175667762756,
        -0.0018199931364506483,
        1.0
      ],
      "type": "VEC4"
    },
    {
      "bufferView": 1,
      "byteOffset": 14664,
      "componentType": 5126,
      "count": 16,
      "max": [
        0.7886999845504761,
        0.7515000104904175
      ],
      "min": [
        0.12950000166893005,
        0.43560001254081726
      ],
      "type": "VEC2"
    },
    {
      "bufferView": 0,
      "byteOffset": 26064,
      "componentType": 5125,
      "count": 24,
      "type": "SCALAR"
    }
  ],
  "asset": {
    "extras": {
      "author": "Anna Khetagurova (https://sketchfab.com/AnKhe777)",
      "license": "CC-BY-4.0 (http://creativecommons.org/licenses/by/4.0/)",
      "source": "https://sketchfab.com/3d-models/wooden-boat-527bc6a2d9c24d969dc940ba4e5d6068",
      "title": "wooden boat"
    },
    "generator": "Sketchfab-13.74.0",
    "version": "2.0"
  },
  "bufferViews": [
    {
      "buffer": 0,
      "byteLength": 26160,
      "name": "floatBufferViews",
      "target": 34963
    },
    {
      "buffer": 0,
      "byteLength": 14792,
      "byteOffset": 26160,
      "byteStride": 8,
      "name": "floatBufferViews",
      "target": 34962
    },
    {
      "buffer": 0,
      "byteLength": 44376,
      "byteOffset": 40952,
      "byteStride": 12,
      "name": "floatBufferViews",
      "target": 34962
    },
    {
      "buffer": 0,
      "byteLength": 29584,
      "byteOffset": 85328,
      "byteStride": 16,
      "name": "floatBufferViews",
      "target": 34962
    }
  ],
  "buffers": [
    {
      "byteLength": 114912,
      "uri": "scene.bin"
    }
  ],
  "extensionsUsed": [
    "KHR_materials_clearcoat"
  ],
  "images": [
    {
      "uri": "textures/material_baseColor.png"
    },
    {
      "uri": "textures/material_metallicRoughness.png"
    },
    {
      "uri": "textures/material_normal.png"
    },
    {
      "uri": "textures/material_1_baseColor.png"
    },
    {
      "uri": "textures/material_1_metallicRoughness.png"
    },
    {
      "uri": "textures/material_1_normal.png"
    },
    {
      "uri": "textures/material_2_baseColor.png"
    },
    {
      "uri": "textures/material_2_metallicRoughness.png"
    },
    {
      "uri": "textures/material_2_normal.png"
    },
    {
      "uri": "textures/material_3_baseColor.png"
    },
    {
      "uri": "textures/material_3_metallicRoughness.png"
    },
    {
      "uri": "textures/material_3_normal.png"
    },
    {
      "uri": "textures/material_4_baseColor.png"
    },
    {
      "uri": "textures/material_4_metallicRoughness.png"
    },
    {
      "uri": "textures/material_4_normal.png"
    },
    {
      "uri": "textures/material_5_baseColor.png"
    },
    {
      "uri": "textures/material_5_metallicRoughness.png"
    },
    {
      "uri": "textures/material_5_normal.png"
    },
    {
      "uri": "textures/material_6_baseColor.png"
    },
    {
      "uri": "textures/material_6_metallicRoughness.png"
    },
    {
      "uri": "textures/material_6_emissive.png"
    },
    {
      "uri": "textures/material_6_normal.png"
    },
    {
      "uri": "textures/material_7_baseColor.png"
    },
    {
      "uri": "textures/material_7_metallicRoughness.png"
    },
    {
      "uri": "textures/material_7_normal.png"
    }
  ],
  "materials": [
    {
      "doubleSided": true,
      "name": "material",
      "normalTexture": {
        "index": 2
      },
      "occlusionTexture": {
        "index": 1
      },
      "pbrMetallicRoughness": {
        "baseColorTexture": {
          "index": 0
        },
        "metallicFactor": 0.0,
        "metallicRoughnessTexture": {
          "index": 1
        },
        "roughnessFactor": 0.6
      }
    },
    {
      "doubleSided": true,
      "name": "material_1",
      "normalTexture": {
        "index": 5
      },
      "occlusionTexture": {
        "index": 4
      },
      "pbrMetallicRoughness": {
        "baseColorTexture": {
          "index": 3
        },
        "metallicFactor": 0.0,
        "metallicRoughnessTexture": {
          "index": 4
        },
        "roughnessFactor": 0.6
      }
    },
    {
      "doubleSided": true,
      "name": "material_2",
      "normalTexture": {
        "index": 8
      },
      "occlusionTexture": {
        "index": 7
      },
      "pbrMetallicRoughness": {
        "baseColorTexture": {
          "index": 6
        },
        "metallicFactor": 0.0,
        "metallicRoughnessTexture": {
          "index": 7
        },
        "roughnessFactor": 0.6
      }
    },
    {
      "doubleSided": true,
      "name": "material_3",
      "normalTexture": {
        "index": 11
      },
      "occlusionTexture": {
        "index": 10
      },
      "pbrMetallicRoughness": {
        "baseColorTexture": {
          "index": 9
        },
        "metallicFactor": 0.0,
        "metallicRoughnessTexture": {
          "index": 10
        },
        "roughnessFactor": 0.6
      }
    },
    {
      "doubleSided": true,
      "name": "material_4",
      "normalTexture": {
        "index": 14
      },
      "occlusionTexture": {
        "index": 13
      },
      "pbrMetallicRoughness": {
        "baseColorTexture": {
          "index": 12
        },
        "metallicFactor": 0.0,
        "metallicRoughnessTexture": {
          "index": 13
        },
        "roughnessFactor": 0.6
      }
    },
    {
      "doubleSided": true,
      "name": "material_5",
      "normalTexture": {
        "index": 17
      },
      "occlusionTexture": {
        "index": 16
      },
      "pbrMetallicRoughness": {
        "baseColorTexture": {
          "index": 15
        },
        "metallicRoughnessTexture": {
          "index": 16
        },
        "roughnessFactor": 0.6
      }
    },
    {
      "doubleSided": true,
      "emissiveFactor": [
        1.0,
        1.0,
        1.0
      ],
      "emissiveTexture": {
        "index": 20
      },
      "extensions": {
        "KHR_materials_clearcoat": {
          "clearcoatFactor": 1.0,
          "clearcoatRoughnessFactor": 0.04
        }
      },
      "name": "material_6",
      "normalTexture": {
        "index": 21
      },
      "occlusionTexture": {
        "index": 19
      },
      "pbrMetallicRoughness": {
        "baseColorTexture": {
          "index": 18
        },
        "metallicFactor": 0.0,
        "metallicRoughnessTexture": {
          "index": 19
        },
        "roughnessFactor": 0.6
      }
    },
    {
      "alphaMode": "BLEND",
      "doubleSided": true,
      "extensions": {
        "KHR_materials_clearcoat": {
          "clearcoatFactor": 1.0,
          "clearcoatRoughnessFactor": 0.0321109145188455
        }
      },
      "name": "material_7",
      "normalTexture": {
        "index": 24
      },
      "occlusionTexture": {
        "index": 23
      },
      "pbrMetallicRoughness": {
        "baseColorFactor": [
          1.0,
          1.0,
          1.0,
          0.1050729924788258
        ],
        "baseColorTexture": {
          "index": 22
        },
        "metallicFactor": 0.0,
        "metallicRoughnessTexture": {
          "index": 23
        },
        "roughnessFactor": 0.12331351196882087
      }
    }
  ],
  "meshes": [
    {
      "name": "Object_0",
      "primitives": [
        {
          "attributes": {
            "NORMAL": 1,
            "POSITION": 0,
            "TANGENT": 2,
            "TEXCOORD_0": 3
          },
          "indices": 4,
          "material": 0,
          "mode": 4
        }
      ]
    },
    {
      "name": "Object_1",
      "primitives": [
        {
          "attributes": {
            "NORMAL": 6,
            "POSITION": 5,
            "TANGENT": 7,
            "TEXCOORD_0": 8
          },
          "indices": 9,
          "material": 1,
          "mode": 4
        }
      ]
    },
    {
      "name": "Object_2",
      "primitives": [
        {
          "attributes": {
            "NORMAL": 11,
            "POSITION": 10,
            "TANGENT": 12,
            "TEXCOORD_0": 13
          },
          "indices": 14,
          "material": 2,
          "mode": 4
        }
      ]
    },
    {
      "name": "Object_3",
      "primitives": [
        {
          "attributes": {
            "NORMAL": 16,
            "POSITION": 15,
            "TANGENT": 17,
            "TEXCOORD_0": 18
          },
          "indices": 19,
          "material": 3,
          "mode": 4
        }
      ]
    },
    {
      "name": "Object_4",
      "primitives": [
        {
          "attributes": {
            "NORMAL": 21,
            "POSITION": 20,
            "TANGENT": 22,
            "TEXCOORD_0": 23
          },
          "indices": 24,
          "material": 4,
          "mode": 4
        }
      ]
    },
    {
      "name": "Object_5",
      "primitives": [
        {
          "attributes": {
            "NORMAL": 26,
            "POSITION": 25,
            "TANGENT": 27,
            "TEXCOORD_0": 28
          },
          "indices": 29,
          "material": 5,
          "mode": 4
        }
      ]
    },
    {
      "name": "Object_6",
      "primitives": [
        {
          "attributes": {
            "NORMAL": 31,
            "POSITION": 30,
            "TANGENT": 32,
            "TEXCOORD_0": 33
          },
          "indices": 34,
          "material": 6,
          "mode": 4
        }
      ]
    },
    {
      "name": "Object_7",
      "primitives": [
        {
          "attributes": {
            "NORMAL": 36,
            "POSITION": 35,
            "TANGENT": 37,
            "TEXCOORD_0": 38
          },
          "indices": 39,
          "material": 7,
          "mode": 4
        }
      ]
    }
  ],
  "nodes": [
    {
      "children": [
        1
      ],
      "matrix": [
        0.0714285746216774,
        0.0,
        0.0,
        0.0,
        0.0,
        2.734692030970285e-17,
        -0.0714285746216774,
        0.0,
        0.0,
        0.0714285746216774,
        2.734692030970285e-17,
        0.0,
        0.0,
        0.0,
        0.0,
        1.0
      ],
      "name": "Sketchfab_model"
    },
    {
      "children": [
        2,
        3,
        4,
        5,
        6,
        7,
        8,
        9
      ],
      "name": "textures.obj.cleaner.materialmerger.gles"
    },
    {
      "mesh": 0,
      "name": "Object_2"
    },
    {
      "mesh": 1,
      "name": "Object_3"
    },
    {
      "mesh": 2,
      "name": "Object_4"
    },
    {
      "mesh": 3,
      "name": "Object_5"
    },
    {
      "mesh": 4,
      "name": "Object_6"
    },
    {
      "mesh": 5,
      "name": "Object_7"
    },
    {
      "mesh": 6,
      "name": "Object_8"
    },
    {
      "mesh": 7,
      "name": "Object_9"
    }
  ],
  "samplers": [
    {
      "magFilter": 9729,
      "minFilter": 9987,
      "wrapS": 10497,
      "wrapT": 10497
    }
  ],
  "scene": 0,
  "scenes": [
    {
      "name": "Sketchfab_Scene",
      "nodes": [
        0
      ]
    }
  ],
  "textures": [
    {
      "sampler": 0,
      "source": 0
    },
    {
      "sampler": 0,
      "source": 1
    },
    {
      "sampler": 0,
      "source": 2
    },
    {
      "sampler": 0,
      "source": 3
    },
    {
      "sampler": 0,
      "source": 4
    },
    {
      "sampler": 0,
      "source": 5
    },
    {
      "sampler": 0,
      "source": 6
    },
    {
      "sampler": 0,
      "source": 7
    },
    {
      "sampler": 0,
      "source": 8
    },
    {
      "sampler": 0,
      "source": 9
    },
    {
      "sampler": 0,
      "source": 10
    },
    {
      "sampler": 0,
      "source": 11
    },
    {
      "sampler": 0,
      "source": 12
    },
    {
      "sampler": 0,
      "source": 13
    },
    {
      "sampler": 0,
      "source": 14
    },
    {
      "sampler": 0,
      "source": 15
    },
    {
      "sampler": 0,
      "source": 16
    },
    {
      "sampler": 0,
      "source": 17
    },
    {
      "sampler": 0,
      "source": 18
    },
    {
      "sampler": 0,
      "source": 19
    },
    {
      "sampler": 0,
      "source": 20
    },
    {
      "sampler": 0,
      "source": 21
    },
    {
      "sampler": 0,
      "source": 22
    },
    {
      "sampler": 0,
      "source": 23
    },
    {
      "sampler": 0,
      "source": 24
    }
  ]
}
